<mxfile host="app.diagrams.net" agent="Mozilla/5.0 (Windows NT 10.0; Win64; x64) AppleWebKit/537.36 (KHTML, like Gecko) Chrome/137.0.0.0 Safari/537.36 Edg/137.0.0.0" version="27.1.6">
  <diagram name="Page-1" id="nt86woNxOJFRBEOcpvVZ">
    <mxGraphModel grid="1" page="1" gridSize="10" guides="1" tooltips="1" connect="1" arrows="1" fold="1" pageScale="1" pageWidth="827" pageHeight="1169" math="0" shadow="0">
      <root>
        <mxCell id="0" />
        <mxCell id="1" parent="0" />
        <mxCell id="44qtV6yCwoEBOuUHUgaS-80" value="z" style="group" connectable="0" vertex="1" parent="1">
          <mxGeometry x="1010" y="-1980" width="2650" height="1970" as="geometry" />
        </mxCell>
        <mxCell id="QHdmLmcBKPEno6SRClTl-1" value="" style="rounded=1;whiteSpace=wrap;html=1;" vertex="1" parent="44qtV6yCwoEBOuUHUgaS-80">
          <mxGeometry width="2650" height="1970" as="geometry" />
        </mxCell>
        <mxCell id="QHdmLmcBKPEno6SRClTl-3" value="&lt;div&gt;Website&lt;/div&gt;" style="text;html=1;align=center;verticalAlign=middle;whiteSpace=wrap;rounded=0;fontSize=40;fontStyle=1" vertex="1" parent="44qtV6yCwoEBOuUHUgaS-80">
          <mxGeometry x="1295" y="95.04385964912281" width="60" height="25.92105263157895" as="geometry" />
        </mxCell>
        <mxCell id="44qtV6yCwoEBOuUHUgaS-79" value="" style="group" connectable="0" vertex="1" parent="44qtV6yCwoEBOuUHUgaS-80">
          <mxGeometry x="240" y="198.7280701754386" width="2160" height="1347.8947368421052" as="geometry" />
        </mxCell>
        <mxCell id="QHdmLmcBKPEno6SRClTl-47" value="" style="group" connectable="0" vertex="1" parent="44qtV6yCwoEBOuUHUgaS-79">
          <mxGeometry width="720" height="1244.2105263157894" as="geometry" />
        </mxCell>
        <mxCell id="QHdmLmcBKPEno6SRClTl-44" value="" style="rounded=0;whiteSpace=wrap;html=1;" vertex="1" parent="QHdmLmcBKPEno6SRClTl-47">
          <mxGeometry width="720" height="1183.7280701754385" as="geometry" />
        </mxCell>
        <mxCell id="QHdmLmcBKPEno6SRClTl-46" value="Tela Login" style="text;html=1;align=center;verticalAlign=middle;whiteSpace=wrap;rounded=0;fontSize=24;fontStyle=1" vertex="1" parent="QHdmLmcBKPEno6SRClTl-47">
          <mxGeometry x="295" y="29.03157894736842" width="130" height="29.03157894736842" as="geometry" />
        </mxCell>
        <mxCell id="44qtV6yCwoEBOuUHUgaS-78" value="" style="group" connectable="0" vertex="1" parent="QHdmLmcBKPEno6SRClTl-47">
          <mxGeometry x="29" y="116.12631578947368" width="623.5" height="1007.1192982456139" as="geometry" />
        </mxCell>
        <mxCell id="QHdmLmcBKPEno6SRClTl-10" value="" style="edgeStyle=orthogonalEdgeStyle;rounded=0;orthogonalLoop=1;jettySize=auto;html=1;" edge="1" parent="44qtV6yCwoEBOuUHUgaS-78" source="QHdmLmcBKPEno6SRClTl-4" target="QHdmLmcBKPEno6SRClTl-8">
          <mxGeometry relative="1" as="geometry" />
        </mxCell>
        <mxCell id="QHdmLmcBKPEno6SRClTl-4" value="&lt;div&gt;Inicio&lt;/div&gt;" style="ellipse;whiteSpace=wrap;html=1;aspect=fixed;fillColor=#0050ef;fontColor=#ffffff;strokeColor=#001DBC;" vertex="1" parent="44qtV6yCwoEBOuUHUgaS-78">
          <mxGeometry x="213.5" width="60.48245614035087" height="60.48245614035087" as="geometry" />
        </mxCell>
        <mxCell id="QHdmLmcBKPEno6SRClTl-12" value="" style="edgeStyle=orthogonalEdgeStyle;rounded=0;orthogonalLoop=1;jettySize=auto;html=1;" edge="1" parent="44qtV6yCwoEBOuUHUgaS-78" source="QHdmLmcBKPEno6SRClTl-8" target="QHdmLmcBKPEno6SRClTl-11">
          <mxGeometry relative="1" as="geometry" />
        </mxCell>
        <mxCell id="QHdmLmcBKPEno6SRClTl-8" value="email, senha" style="shape=manualInput;whiteSpace=wrap;html=1;fillColor=#60a917;fontColor=light-dark(#FFFFFF,#FFFFFF);strokeColor=#2D7600;" vertex="1" parent="44qtV6yCwoEBOuUHUgaS-78">
          <mxGeometry x="208.5" y="96.77192982456141" width="80" height="67.74035087719298" as="geometry" />
        </mxCell>
        <mxCell id="QHdmLmcBKPEno6SRClTl-14" value="" style="edgeStyle=orthogonalEdgeStyle;rounded=0;orthogonalLoop=1;jettySize=auto;html=1;" edge="1" parent="44qtV6yCwoEBOuUHUgaS-78" source="QHdmLmcBKPEno6SRClTl-11" target="QHdmLmcBKPEno6SRClTl-13">
          <mxGeometry relative="1" as="geometry" />
        </mxCell>
        <mxCell id="QHdmLmcBKPEno6SRClTl-11" value="&lt;div&gt;Busca email no DB.&lt;/div&gt;&lt;div&gt;emailBd -&amp;gt; resposta&lt;/div&gt;" style="whiteSpace=wrap;html=1;fillColor=#6a00ff;strokeColor=#3700CC;fontColor=#ffffff;" vertex="1" parent="44qtV6yCwoEBOuUHUgaS-78">
          <mxGeometry x="188.5" y="246.76842105263157" width="120" height="58.06315789473684" as="geometry" />
        </mxCell>
        <mxCell id="QHdmLmcBKPEno6SRClTl-16" value="" style="edgeStyle=orthogonalEdgeStyle;rounded=0;orthogonalLoop=1;jettySize=auto;html=1;" edge="1" parent="44qtV6yCwoEBOuUHUgaS-78" source="QHdmLmcBKPEno6SRClTl-13" target="QHdmLmcBKPEno6SRClTl-15">
          <mxGeometry relative="1" as="geometry" />
        </mxCell>
        <mxCell id="QHdmLmcBKPEno6SRClTl-13" value="&lt;div&gt;if (emailBd)&lt;/div&gt;" style="rhombus;whiteSpace=wrap;html=1;fillColor=#fa6800;strokeColor=#C73500;fontColor=#000000;" vertex="1" parent="44qtV6yCwoEBOuUHUgaS-78">
          <mxGeometry x="196" y="372.5719298245614" width="105" height="77.41754385964913" as="geometry" />
        </mxCell>
        <mxCell id="QHdmLmcBKPEno6SRClTl-28" value="" style="edgeStyle=orthogonalEdgeStyle;rounded=0;orthogonalLoop=1;jettySize=auto;html=1;" edge="1" parent="44qtV6yCwoEBOuUHUgaS-78" source="QHdmLmcBKPEno6SRClTl-15" target="QHdmLmcBKPEno6SRClTl-27">
          <mxGeometry relative="1" as="geometry" />
        </mxCell>
        <mxCell id="QHdmLmcBKPEno6SRClTl-15" value="&lt;div&gt;Coleta senha do DB.&lt;/div&gt;&lt;div&gt;senhaDb -&amp;gt; resposta&lt;/div&gt;" style="whiteSpace=wrap;html=1;fillColor=#6a00ff;strokeColor=#3700CC;fontColor=#ffffff;" vertex="1" parent="44qtV6yCwoEBOuUHUgaS-78">
          <mxGeometry x="363.5" y="382.24912280701756" width="120" height="58.06315789473684" as="geometry" />
        </mxCell>
        <mxCell id="QHdmLmcBKPEno6SRClTl-19" value="verdadeiro" style="text;html=1;align=center;verticalAlign=middle;whiteSpace=wrap;rounded=0;fontSize=10;" vertex="1" parent="44qtV6yCwoEBOuUHUgaS-78">
          <mxGeometry x="308.5" y="387.08771929824564" width="45" height="24.192982456140353" as="geometry" />
        </mxCell>
        <mxCell id="QHdmLmcBKPEno6SRClTl-22" value="falso" style="text;html=1;align=center;verticalAlign=middle;whiteSpace=wrap;rounded=0;fontSize=10;" vertex="1" parent="44qtV6yCwoEBOuUHUgaS-78">
          <mxGeometry x="153.5" y="388.0554385964913" width="25" height="24.192982456140353" as="geometry" />
        </mxCell>
        <mxCell id="QHdmLmcBKPEno6SRClTl-83" style="edgeStyle=orthogonalEdgeStyle;rounded=0;orthogonalLoop=1;jettySize=auto;html=1;entryX=0;entryY=0.5;entryDx=0;entryDy=0;" edge="1" parent="44qtV6yCwoEBOuUHUgaS-78" source="QHdmLmcBKPEno6SRClTl-25" target="QHdmLmcBKPEno6SRClTl-76">
          <mxGeometry relative="1" as="geometry">
            <Array as="points">
              <mxPoint y="410.9350877192982" />
              <mxPoint y="972.557894736842" />
            </Array>
          </mxGeometry>
        </mxCell>
        <mxCell id="QHdmLmcBKPEno6SRClTl-25" value="Email não encontrado" style="shape=display;whiteSpace=wrap;html=1;fillColor=#76608a;fontColor=light-dark(#FFFFFF,#FFFFFF);strokeColor=#432D57;" vertex="1" parent="44qtV6yCwoEBOuUHUgaS-78">
          <mxGeometry x="33.5" y="389.0231578947369" width="110" height="44.51508771929824" as="geometry" />
        </mxCell>
        <mxCell id="QHdmLmcBKPEno6SRClTl-26" style="edgeStyle=orthogonalEdgeStyle;rounded=0;orthogonalLoop=1;jettySize=auto;html=1;entryX=1;entryY=0.5;entryDx=0;entryDy=0;entryPerimeter=0;" edge="1" parent="44qtV6yCwoEBOuUHUgaS-78" source="QHdmLmcBKPEno6SRClTl-13" target="QHdmLmcBKPEno6SRClTl-25">
          <mxGeometry relative="1" as="geometry" />
        </mxCell>
        <mxCell id="QHdmLmcBKPEno6SRClTl-32" value="" style="edgeStyle=orthogonalEdgeStyle;rounded=0;orthogonalLoop=1;jettySize=auto;html=1;" edge="1" parent="44qtV6yCwoEBOuUHUgaS-78" source="QHdmLmcBKPEno6SRClTl-27" target="QHdmLmcBKPEno6SRClTl-31">
          <mxGeometry relative="1" as="geometry" />
        </mxCell>
        <mxCell id="QHdmLmcBKPEno6SRClTl-27" value="if (senha == senhaDb)" style="rhombus;whiteSpace=wrap;html=1;fillColor=#fa6800;strokeColor=#C73500;fontColor=#000000;" vertex="1" parent="44qtV6yCwoEBOuUHUgaS-78">
          <mxGeometry x="347.25" y="493.53684210526313" width="152.5" height="77.41754385964913" as="geometry" />
        </mxCell>
        <mxCell id="QHdmLmcBKPEno6SRClTl-34" value="" style="edgeStyle=orthogonalEdgeStyle;rounded=0;orthogonalLoop=1;jettySize=auto;html=1;entryX=0.545;entryY=0;entryDx=0;entryDy=0;entryPerimeter=0;" edge="1" parent="44qtV6yCwoEBOuUHUgaS-78" source="QHdmLmcBKPEno6SRClTl-31" target="QHdmLmcBKPEno6SRClTl-35">
          <mxGeometry relative="1" as="geometry">
            <mxPoint x="563.5" y="735.4666666666667" as="targetPoint" />
          </mxGeometry>
        </mxCell>
        <mxCell id="QHdmLmcBKPEno6SRClTl-31" value="autoriza entrada" style="whiteSpace=wrap;html=1;fillColor=#6a00ff;strokeColor=#3700CC;fontColor=#ffffff;" vertex="1" parent="44qtV6yCwoEBOuUHUgaS-78">
          <mxGeometry x="503.5" y="609.6631578947369" width="120" height="58.06315789473684" as="geometry" />
        </mxCell>
        <mxCell id="QHdmLmcBKPEno6SRClTl-35" value="Usuário Logado!" style="shape=display;whiteSpace=wrap;html=1;fillColor=#76608a;fontColor=light-dark(#FFFFFF,#FFFFFF);strokeColor=#432D57;" vertex="1" parent="44qtV6yCwoEBOuUHUgaS-78">
          <mxGeometry x="503.5" y="735.4666666666667" width="110" height="44.51508771929824" as="geometry" />
        </mxCell>
        <mxCell id="QHdmLmcBKPEno6SRClTl-82" style="edgeStyle=orthogonalEdgeStyle;rounded=0;orthogonalLoop=1;jettySize=auto;html=1;" edge="1" parent="44qtV6yCwoEBOuUHUgaS-78" source="QHdmLmcBKPEno6SRClTl-36" target="QHdmLmcBKPEno6SRClTl-76">
          <mxGeometry relative="1" as="geometry" />
        </mxCell>
        <mxCell id="QHdmLmcBKPEno6SRClTl-36" value="Email ou senha inválida" style="shape=display;whiteSpace=wrap;html=1;fillColor=#76608a;fontColor=light-dark(#FFFFFF,#FFFFFF);strokeColor=#432D57;" vertex="1" parent="44qtV6yCwoEBOuUHUgaS-78">
          <mxGeometry x="223.5" y="609.6631578947369" width="110" height="44.51508771929824" as="geometry" />
        </mxCell>
        <mxCell id="QHdmLmcBKPEno6SRClTl-37" style="edgeStyle=orthogonalEdgeStyle;rounded=0;orthogonalLoop=1;jettySize=auto;html=1;entryX=0.586;entryY=0.051;entryDx=0;entryDy=0;entryPerimeter=0;" edge="1" parent="44qtV6yCwoEBOuUHUgaS-78" source="QHdmLmcBKPEno6SRClTl-27" target="QHdmLmcBKPEno6SRClTl-36">
          <mxGeometry relative="1" as="geometry" />
        </mxCell>
        <mxCell id="QHdmLmcBKPEno6SRClTl-38" value="verdadeiro" style="text;html=1;align=center;verticalAlign=middle;whiteSpace=wrap;rounded=0;fontSize=10;" vertex="1" parent="44qtV6yCwoEBOuUHUgaS-78">
          <mxGeometry x="513.5" y="510.95578947368426" width="45" height="24.192982456140353" as="geometry" />
        </mxCell>
        <mxCell id="QHdmLmcBKPEno6SRClTl-39" value="falso" style="text;html=1;align=center;verticalAlign=middle;whiteSpace=wrap;rounded=0;fontSize=10;" vertex="1" parent="44qtV6yCwoEBOuUHUgaS-78">
          <mxGeometry x="301" y="509.9880701754386" width="25" height="24.192982456140353" as="geometry" />
        </mxCell>
        <mxCell id="QHdmLmcBKPEno6SRClTl-76" value="Fim" style="ellipse;whiteSpace=wrap;html=1;aspect=fixed;fillColor=#0050ef;fontColor=#ffffff;strokeColor=#001DBC;" vertex="1" parent="44qtV6yCwoEBOuUHUgaS-78">
          <mxGeometry x="291" y="937.99649122807" width="69.12280701754385" height="69.12280701754385" as="geometry" />
        </mxCell>
        <mxCell id="QHdmLmcBKPEno6SRClTl-81" style="edgeStyle=orthogonalEdgeStyle;rounded=0;orthogonalLoop=1;jettySize=auto;html=1;entryX=1;entryY=0.5;entryDx=0;entryDy=0;" edge="1" parent="44qtV6yCwoEBOuUHUgaS-78" source="QHdmLmcBKPEno6SRClTl-77" target="QHdmLmcBKPEno6SRClTl-76">
          <mxGeometry relative="1" as="geometry" />
        </mxCell>
        <mxCell id="QHdmLmcBKPEno6SRClTl-77" value="Envia para tela de cadastro" style="whiteSpace=wrap;html=1;fillColor=#76608a;strokeColor=#432D57;fontColor=light-dark(#FFFFFF,#FFFFFF);" vertex="1" parent="44qtV6yCwoEBOuUHUgaS-78">
          <mxGeometry x="498.5" y="825.6719298245613" width="120" height="51.84210526315789" as="geometry" />
        </mxCell>
        <mxCell id="QHdmLmcBKPEno6SRClTl-78" value="" style="edgeStyle=orthogonalEdgeStyle;rounded=0;orthogonalLoop=1;jettySize=auto;html=1;" edge="1" parent="44qtV6yCwoEBOuUHUgaS-78" source="QHdmLmcBKPEno6SRClTl-35" target="QHdmLmcBKPEno6SRClTl-77">
          <mxGeometry relative="1" as="geometry" />
        </mxCell>
        <mxCell id="QHdmLmcBKPEno6SRClTl-49" value="" style="group" connectable="0" vertex="1" parent="44qtV6yCwoEBOuUHUgaS-79">
          <mxGeometry x="1440" width="720" height="1347.8947368421052" as="geometry" />
        </mxCell>
        <mxCell id="QHdmLmcBKPEno6SRClTl-50" value="" style="rounded=0;whiteSpace=wrap;html=1;" vertex="1" parent="QHdmLmcBKPEno6SRClTl-49">
          <mxGeometry x="-640" width="1360" height="1347.8947368421052" as="geometry" />
        </mxCell>
        <mxCell id="QHdmLmcBKPEno6SRClTl-92" value="" style="edgeStyle=orthogonalEdgeStyle;rounded=0;orthogonalLoop=1;jettySize=auto;html=1;" edge="1" parent="QHdmLmcBKPEno6SRClTl-49">
          <mxGeometry relative="1" as="geometry">
            <mxPoint x="80" y="496.82017543859644" as="sourcePoint" />
          </mxGeometry>
        </mxCell>
        <mxCell id="44qtV6yCwoEBOuUHUgaS-77" value="" style="group" connectable="0" vertex="1" parent="QHdmLmcBKPEno6SRClTl-49">
          <mxGeometry x="-440" y="34.561403508771924" width="1092.5" height="1270.1315789473683" as="geometry" />
        </mxCell>
        <mxCell id="QHdmLmcBKPEno6SRClTl-51" value="" style="edgeStyle=orthogonalEdgeStyle;rounded=0;orthogonalLoop=1;jettySize=auto;html=1;" edge="1" parent="44qtV6yCwoEBOuUHUgaS-77" source="QHdmLmcBKPEno6SRClTl-52" target="QHdmLmcBKPEno6SRClTl-54">
          <mxGeometry relative="1" as="geometry" />
        </mxCell>
        <mxCell id="QHdmLmcBKPEno6SRClTl-52" value="&lt;div&gt;Inicio&lt;/div&gt;" style="ellipse;whiteSpace=wrap;html=1;aspect=fixed;fillColor=#0050ef;fontColor=#ffffff;strokeColor=#001DBC;" vertex="1" parent="44qtV6yCwoEBOuUHUgaS-77">
          <mxGeometry x="682.5" y="69.12280701754385" width="60.48245614035087" height="60.48245614035087" as="geometry" />
        </mxCell>
        <mxCell id="QHdmLmcBKPEno6SRClTl-53" value="" style="edgeStyle=orthogonalEdgeStyle;rounded=0;orthogonalLoop=1;jettySize=auto;html=1;" edge="1" parent="44qtV6yCwoEBOuUHUgaS-77" source="QHdmLmcBKPEno6SRClTl-54" target="QHdmLmcBKPEno6SRClTl-56">
          <mxGeometry relative="1" as="geometry" />
        </mxCell>
        <mxCell id="QHdmLmcBKPEno6SRClTl-54" value="Entra dados Responsavel e Crianca" style="shape=manualInput;whiteSpace=wrap;html=1;fillColor=#60a917;fontColor=light-dark(#FFFFFF,#FFFFFF);strokeColor=#2D7600;" vertex="1" parent="44qtV6yCwoEBOuUHUgaS-77">
          <mxGeometry x="648.75" y="155.52631578947367" width="141.25" height="95.0438596491228" as="geometry" />
        </mxCell>
        <mxCell id="QHdmLmcBKPEno6SRClTl-55" value="" style="edgeStyle=orthogonalEdgeStyle;rounded=0;orthogonalLoop=1;jettySize=auto;html=1;" edge="1" parent="44qtV6yCwoEBOuUHUgaS-77" source="QHdmLmcBKPEno6SRClTl-56" target="QHdmLmcBKPEno6SRClTl-58">
          <mxGeometry relative="1" as="geometry" />
        </mxCell>
        <mxCell id="QHdmLmcBKPEno6SRClTl-56" value="&lt;div&gt;Busca cpf no DB de responsavel e criança.&lt;/div&gt;&lt;div&gt;nomePaiDb -&amp;gt; resposta&lt;/div&gt;&lt;div&gt;nomeCriancaDb -&amp;gt; resposta&lt;/div&gt;" style="whiteSpace=wrap;html=1;fillColor=#6a00ff;strokeColor=#3700CC;fontColor=#ffffff;" vertex="1" parent="44qtV6yCwoEBOuUHUgaS-77">
          <mxGeometry x="627.09" y="293.77192982456137" width="182.81" height="64.80263157894736" as="geometry" />
        </mxCell>
        <mxCell id="QHdmLmcBKPEno6SRClTl-57" value="" style="edgeStyle=orthogonalEdgeStyle;rounded=0;orthogonalLoop=1;jettySize=auto;html=1;" edge="1" parent="44qtV6yCwoEBOuUHUgaS-77" source="QHdmLmcBKPEno6SRClTl-58" target="QHdmLmcBKPEno6SRClTl-60">
          <mxGeometry relative="1" as="geometry" />
        </mxCell>
        <mxCell id="QHdmLmcBKPEno6SRClTl-58" value="&lt;div&gt;if (nomePaiDb &amp;amp;&amp;amp; nomeCriancaDb)&lt;/div&gt;" style="rhombus;whiteSpace=wrap;html=1;fillColor=#fa6800;strokeColor=#C73500;fontColor=#000000;" vertex="1" parent="44qtV6yCwoEBOuUHUgaS-77">
          <mxGeometry x="641" y="401.77631578947364" width="155" height="69.12280701754385" as="geometry" />
        </mxCell>
        <mxCell id="QHdmLmcBKPEno6SRClTl-59" value="" style="edgeStyle=orthogonalEdgeStyle;rounded=0;orthogonalLoop=1;jettySize=auto;html=1;" edge="1" parent="44qtV6yCwoEBOuUHUgaS-77" source="QHdmLmcBKPEno6SRClTl-60" target="QHdmLmcBKPEno6SRClTl-66">
          <mxGeometry relative="1" as="geometry" />
        </mxCell>
        <mxCell id="QHdmLmcBKPEno6SRClTl-60" value="&lt;div&gt;Coleta senha do DB.&lt;/div&gt;&lt;div&gt;senhaDb -&amp;gt; resposta&lt;/div&gt;" style="whiteSpace=wrap;html=1;fillColor=#6a00ff;strokeColor=#3700CC;fontColor=#ffffff;" vertex="1" parent="44qtV6yCwoEBOuUHUgaS-77">
          <mxGeometry x="848.75" y="410.41666666666663" width="120" height="51.84210526315789" as="geometry" />
        </mxCell>
        <mxCell id="QHdmLmcBKPEno6SRClTl-61" value="verdadeiro" style="text;html=1;align=center;verticalAlign=middle;whiteSpace=wrap;rounded=0;fontSize=10;" vertex="1" parent="44qtV6yCwoEBOuUHUgaS-77">
          <mxGeometry x="795" y="415.6008771929824" width="45" height="21.600877192982455" as="geometry" />
        </mxCell>
        <mxCell id="QHdmLmcBKPEno6SRClTl-62" value="falso" style="text;html=1;align=center;verticalAlign=middle;whiteSpace=wrap;rounded=0;fontSize=10;" vertex="1" parent="44qtV6yCwoEBOuUHUgaS-77">
          <mxGeometry x="601.09" y="415.6008771929824" width="25" height="21.600877192982455" as="geometry" />
        </mxCell>
        <mxCell id="QHdmLmcBKPEno6SRClTl-65" value="" style="edgeStyle=orthogonalEdgeStyle;rounded=0;orthogonalLoop=1;jettySize=auto;html=1;" edge="1" parent="44qtV6yCwoEBOuUHUgaS-77" source="QHdmLmcBKPEno6SRClTl-66" target="QHdmLmcBKPEno6SRClTl-68">
          <mxGeometry relative="1" as="geometry" />
        </mxCell>
        <mxCell id="QHdmLmcBKPEno6SRClTl-66" value="if (senha == senhaDb)" style="rhombus;whiteSpace=wrap;html=1;fillColor=#fa6800;strokeColor=#C73500;fontColor=#000000;" vertex="1" parent="44qtV6yCwoEBOuUHUgaS-77">
          <mxGeometry x="816.25" y="509.7807017543859" width="152.5" height="69.12280701754385" as="geometry" />
        </mxCell>
        <mxCell id="QHdmLmcBKPEno6SRClTl-67" value="" style="edgeStyle=orthogonalEdgeStyle;rounded=0;orthogonalLoop=1;jettySize=auto;html=1;entryX=0.545;entryY=0;entryDx=0;entryDy=0;entryPerimeter=0;" edge="1" parent="44qtV6yCwoEBOuUHUgaS-77" source="QHdmLmcBKPEno6SRClTl-68" target="QHdmLmcBKPEno6SRClTl-69">
          <mxGeometry relative="1" as="geometry">
            <mxPoint x="1032.5" y="725.7894736842104" as="targetPoint" />
          </mxGeometry>
        </mxCell>
        <mxCell id="QHdmLmcBKPEno6SRClTl-68" value="autoriza entrada" style="whiteSpace=wrap;html=1;fillColor=#6a00ff;strokeColor=#3700CC;fontColor=#ffffff;" vertex="1" parent="44qtV6yCwoEBOuUHUgaS-77">
          <mxGeometry x="972.5" y="613.4649122807017" width="120" height="51.84210526315789" as="geometry" />
        </mxCell>
        <mxCell id="44qtV6yCwoEBOuUHUgaS-64" style="edgeStyle=orthogonalEdgeStyle;rounded=0;orthogonalLoop=1;jettySize=auto;html=1;endArrow=none;startFill=0;" edge="1" parent="44qtV6yCwoEBOuUHUgaS-77" source="QHdmLmcBKPEno6SRClTl-69" target="44qtV6yCwoEBOuUHUgaS-70">
          <mxGeometry relative="1" as="geometry">
            <mxPoint x="500" y="950.4385964912279" as="targetPoint" />
          </mxGeometry>
        </mxCell>
        <mxCell id="QHdmLmcBKPEno6SRClTl-69" value="Usuário Logado!" style="shape=display;whiteSpace=wrap;html=1;fillColor=#76608a;fontColor=light-dark(#FFFFFF,#FFFFFF);strokeColor=#432D57;" vertex="1" parent="44qtV6yCwoEBOuUHUgaS-77">
          <mxGeometry x="972.5" y="725.7894736842104" width="110" height="39.74561403508771" as="geometry" />
        </mxCell>
        <mxCell id="44qtV6yCwoEBOuUHUgaS-63" style="edgeStyle=orthogonalEdgeStyle;rounded=0;orthogonalLoop=1;jettySize=auto;html=1;entryX=1.032;entryY=0.571;entryDx=0;entryDy=0;entryPerimeter=0;endArrow=none;startFill=0;" edge="1" parent="44qtV6yCwoEBOuUHUgaS-77" source="QHdmLmcBKPEno6SRClTl-70" target="44qtV6yCwoEBOuUHUgaS-70">
          <mxGeometry relative="1" as="geometry">
            <mxPoint x="510" y="950.4385964912279" as="targetPoint" />
            <Array as="points">
              <mxPoint x="748" y="665.3070175438596" />
              <mxPoint x="690" y="665.3070175438596" />
              <mxPoint x="690" y="950.4385964912279" />
            </Array>
          </mxGeometry>
        </mxCell>
        <mxCell id="QHdmLmcBKPEno6SRClTl-70" value="Email ou senha inválida" style="shape=display;whiteSpace=wrap;html=1;fillColor=#76608a;fontColor=light-dark(#FFFFFF,#FFFFFF);strokeColor=#432D57;" vertex="1" parent="44qtV6yCwoEBOuUHUgaS-77">
          <mxGeometry x="692.5" y="613.4649122807017" width="110" height="39.74561403508771" as="geometry" />
        </mxCell>
        <mxCell id="QHdmLmcBKPEno6SRClTl-71" style="edgeStyle=orthogonalEdgeStyle;rounded=0;orthogonalLoop=1;jettySize=auto;html=1;entryX=0.586;entryY=0.051;entryDx=0;entryDy=0;entryPerimeter=0;" edge="1" parent="44qtV6yCwoEBOuUHUgaS-77" source="QHdmLmcBKPEno6SRClTl-66" target="QHdmLmcBKPEno6SRClTl-70">
          <mxGeometry relative="1" as="geometry" />
        </mxCell>
        <mxCell id="QHdmLmcBKPEno6SRClTl-72" value="verdadeiro" style="text;html=1;align=center;verticalAlign=middle;whiteSpace=wrap;rounded=0;fontSize=10;" vertex="1" parent="44qtV6yCwoEBOuUHUgaS-77">
          <mxGeometry x="982.5" y="525.3333333333333" width="45" height="21.600877192982455" as="geometry" />
        </mxCell>
        <mxCell id="QHdmLmcBKPEno6SRClTl-73" value="falso" style="text;html=1;align=center;verticalAlign=middle;whiteSpace=wrap;rounded=0;fontSize=10;" vertex="1" parent="44qtV6yCwoEBOuUHUgaS-77">
          <mxGeometry x="770" y="524.469298245614" width="25" height="21.600877192982455" as="geometry" />
        </mxCell>
        <mxCell id="QHdmLmcBKPEno6SRClTl-74" value="Tela Cadastro" style="text;html=1;align=center;verticalAlign=middle;whiteSpace=wrap;rounded=0;fontSize=24;fontStyle=1" vertex="1" parent="44qtV6yCwoEBOuUHUgaS-77">
          <mxGeometry x="440" width="165" height="25.921052631578945" as="geometry" />
        </mxCell>
        <mxCell id="44qtV6yCwoEBOuUHUgaS-15" value="" style="edgeStyle=orthogonalEdgeStyle;rounded=0;orthogonalLoop=1;jettySize=auto;html=1;" edge="1" parent="44qtV6yCwoEBOuUHUgaS-77" source="44qtV6yCwoEBOuUHUgaS-1" target="44qtV6yCwoEBOuUHUgaS-2">
          <mxGeometry relative="1" as="geometry" />
        </mxCell>
        <mxCell id="44qtV6yCwoEBOuUHUgaS-1" value="Envia dados para API" style="whiteSpace=wrap;html=1;fillColor=#6a00ff;strokeColor=#3700CC;fontColor=#ffffff;" vertex="1" parent="44qtV6yCwoEBOuUHUgaS-77">
          <mxGeometry x="500" y="561.6228070175438" width="120" height="51.84210526315789" as="geometry" />
        </mxCell>
        <mxCell id="44qtV6yCwoEBOuUHUgaS-62" style="edgeStyle=orthogonalEdgeStyle;rounded=0;orthogonalLoop=1;jettySize=auto;html=1;endArrow=none;startFill=0;exitX=0.169;exitY=0.074;exitDx=0;exitDy=0;exitPerimeter=0;" edge="1" parent="44qtV6yCwoEBOuUHUgaS-77" source="44qtV6yCwoEBOuUHUgaS-70" target="44qtV6yCwoEBOuUHUgaS-2">
          <mxGeometry relative="1" as="geometry">
            <mxPoint x="490" y="950.4385964912279" as="sourcePoint" />
            <Array as="points">
              <mxPoint x="560" y="950.4385964912279" />
            </Array>
          </mxGeometry>
        </mxCell>
        <mxCell id="44qtV6yCwoEBOuUHUgaS-2" value="Perfis Cadastrado com Sucesso" style="shape=display;whiteSpace=wrap;html=1;fillColor=#76608a;fontColor=light-dark(#FFFFFF,#FFFFFF);strokeColor=#432D57;size=0.2400753687219792;" vertex="1" parent="44qtV6yCwoEBOuUHUgaS-77">
          <mxGeometry x="483.05" y="639.3859649122807" width="153.91" height="60.48245614035087" as="geometry" />
        </mxCell>
        <mxCell id="44qtV6yCwoEBOuUHUgaS-56" value="" style="edgeStyle=orthogonalEdgeStyle;rounded=0;orthogonalLoop=1;jettySize=auto;html=1;" edge="1" parent="44qtV6yCwoEBOuUHUgaS-77" source="44qtV6yCwoEBOuUHUgaS-18" target="44qtV6yCwoEBOuUHUgaS-55">
          <mxGeometry relative="1" as="geometry" />
        </mxCell>
        <mxCell id="44qtV6yCwoEBOuUHUgaS-18" value="Envia Criança para API e relaciona com o responsável" style="whiteSpace=wrap;html=1;fillColor=#6a00ff;strokeColor=#3700CC;fontColor=#ffffff;" vertex="1" parent="44qtV6yCwoEBOuUHUgaS-77">
          <mxGeometry x="310" y="713.6929824561403" width="120" height="51.84210526315789" as="geometry" />
        </mxCell>
        <mxCell id="44qtV6yCwoEBOuUHUgaS-20" value="Envia Responsavel para API e relaciona com a criança" style="whiteSpace=wrap;html=1;fillColor=#6a00ff;strokeColor=#3700CC;fontColor=#ffffff;" vertex="1" parent="44qtV6yCwoEBOuUHUgaS-77">
          <mxGeometry y="713.6929824561403" width="120" height="51.84210526315789" as="geometry" />
        </mxCell>
        <mxCell id="44qtV6yCwoEBOuUHUgaS-55" value="Criança adicionada com sucesso!" style="shape=display;whiteSpace=wrap;html=1;fillColor=#76608a;fontColor=light-dark(#FFFFFF,#FFFFFF);strokeColor=#432D57;size=0.2400753687219792;" vertex="1" parent="44qtV6yCwoEBOuUHUgaS-77">
          <mxGeometry x="293.04999999999995" y="812.1929824561403" width="153.91" height="60.48245614035087" as="geometry" />
        </mxCell>
        <mxCell id="44qtV6yCwoEBOuUHUgaS-67" style="edgeStyle=orthogonalEdgeStyle;rounded=0;orthogonalLoop=1;jettySize=auto;html=1;entryX=0.5;entryY=0;entryDx=0;entryDy=0;exitX=0.497;exitY=0.935;exitDx=0;exitDy=0;exitPerimeter=0;endArrow=none;startFill=0;" edge="1" parent="44qtV6yCwoEBOuUHUgaS-77" source="44qtV6yCwoEBOuUHUgaS-70" target="44qtV6yCwoEBOuUHUgaS-66">
          <mxGeometry relative="1" as="geometry">
            <mxPoint x="490" y="959.0789473684209" as="sourcePoint" />
          </mxGeometry>
        </mxCell>
        <mxCell id="44qtV6yCwoEBOuUHUgaS-66" value="Gera código de acesso" style="rounded=0;whiteSpace=wrap;html=1;fillColor=#6a00ff;fontColor=#ffffff;strokeColor=#3700CC;" vertex="1" parent="44qtV6yCwoEBOuUHUgaS-77">
          <mxGeometry x="433.05" y="967.7192982456139" width="120" height="51.84210526315789" as="geometry" />
        </mxCell>
        <mxCell id="44qtV6yCwoEBOuUHUgaS-73" value="" style="edgeStyle=orthogonalEdgeStyle;rounded=0;orthogonalLoop=1;jettySize=auto;html=1;" edge="1" parent="44qtV6yCwoEBOuUHUgaS-77" source="44qtV6yCwoEBOuUHUgaS-68" target="44qtV6yCwoEBOuUHUgaS-72">
          <mxGeometry relative="1" as="geometry" />
        </mxCell>
        <mxCell id="44qtV6yCwoEBOuUHUgaS-68" value="Grava código na pulseira" style="whiteSpace=wrap;html=1;rounded=0;fillColor=#6a00ff;fontColor=#ffffff;strokeColor=#3700CC;" vertex="1" parent="44qtV6yCwoEBOuUHUgaS-77">
          <mxGeometry x="433.05" y="1045.4824561403507" width="120" height="51.84210526315789" as="geometry" />
        </mxCell>
        <mxCell id="44qtV6yCwoEBOuUHUgaS-69" value="" style="edgeStyle=orthogonalEdgeStyle;rounded=0;orthogonalLoop=1;jettySize=auto;html=1;" edge="1" parent="44qtV6yCwoEBOuUHUgaS-77" source="44qtV6yCwoEBOuUHUgaS-66" target="44qtV6yCwoEBOuUHUgaS-68">
          <mxGeometry relative="1" as="geometry" />
        </mxCell>
        <mxCell id="44qtV6yCwoEBOuUHUgaS-70" value="" style="shape=waypoint;sketch=0;size=6;pointerEvents=1;points=[];fillColor=#b0e3e6;resizable=0;rotatable=0;perimeter=centerPerimeter;snapToPoint=1;strokeColor=#0e8088;" vertex="1" parent="44qtV6yCwoEBOuUHUgaS-77">
          <mxGeometry x="483.0549999999999" y="941.798245614035" width="20" height="20" as="geometry" />
        </mxCell>
        <mxCell id="44qtV6yCwoEBOuUHUgaS-71" value="" style="edgeStyle=orthogonalEdgeStyle;rounded=0;orthogonalLoop=1;jettySize=auto;html=1;endArrow=none;startFill=0;" edge="1" parent="44qtV6yCwoEBOuUHUgaS-77" source="44qtV6yCwoEBOuUHUgaS-55" target="44qtV6yCwoEBOuUHUgaS-70">
          <mxGeometry relative="1" as="geometry" />
        </mxCell>
        <mxCell id="44qtV6yCwoEBOuUHUgaS-72" value="Exibi código de acesso" style="shape=display;whiteSpace=wrap;html=1;fillColor=#76608a;fontColor=light-dark(#FFFFFF,#FFFFFF);strokeColor=#432D57;size=0.2400753687219792;" vertex="1" parent="44qtV6yCwoEBOuUHUgaS-77">
          <mxGeometry x="413.05" y="1114.6052631578946" width="153.91" height="60.48245614035087" as="geometry" />
        </mxCell>
        <mxCell id="44qtV6yCwoEBOuUHUgaS-74" value="Fim" style="ellipse;whiteSpace=wrap;html=1;fillColor=#0050ef;strokeColor=#001DBC;fontColor=#ffffff;" vertex="1" parent="44qtV6yCwoEBOuUHUgaS-77">
          <mxGeometry x="450.00500000000005" y="1201.0087719298244" width="80" height="69.12280701754385" as="geometry" />
        </mxCell>
        <mxCell id="44qtV6yCwoEBOuUHUgaS-75" value="" style="edgeStyle=orthogonalEdgeStyle;rounded=0;orthogonalLoop=1;jettySize=auto;html=1;" edge="1" parent="44qtV6yCwoEBOuUHUgaS-77" source="44qtV6yCwoEBOuUHUgaS-72" target="44qtV6yCwoEBOuUHUgaS-74">
          <mxGeometry relative="1" as="geometry" />
        </mxCell>
        <mxCell id="44qtV6yCwoEBOuUHUgaS-130" value="verdadeiro" style="text;html=1;align=center;verticalAlign=middle;whiteSpace=wrap;rounded=0;fontSize=10;" vertex="1" parent="44qtV6yCwoEBOuUHUgaS-77">
          <mxGeometry x="305" y="591.8640350877192" width="45" height="21.600877192982455" as="geometry" />
        </mxCell>
        <mxCell id="44qtV6yCwoEBOuUHUgaS-82" value="falso" style="text;html=1;align=center;verticalAlign=middle;whiteSpace=wrap;rounded=0;fontSize=10;" vertex="1" parent="QHdmLmcBKPEno6SRClTl-49">
          <mxGeometry x="-200" y="587.5438596491227" width="25" height="21.600877192982455" as="geometry" />
        </mxCell>
        <mxCell id="44qtV6yCwoEBOuUHUgaS-129" value="verdadeiro" style="text;html=1;align=center;verticalAlign=middle;whiteSpace=wrap;rounded=0;fontSize=10;" vertex="1" parent="QHdmLmcBKPEno6SRClTl-49">
          <mxGeometry x="-80" y="535.7017543859648" width="45" height="21.600877192982455" as="geometry" />
        </mxCell>
        <mxCell id="44qtV6yCwoEBOuUHUgaS-16" value="&lt;div&gt;if (!nomeCriancaDb)&lt;/div&gt;" style="rhombus;whiteSpace=wrap;html=1;fillColor=#fa6800;strokeColor=#C73500;fontColor=#000000;" vertex="1" parent="QHdmLmcBKPEno6SRClTl-49">
          <mxGeometry x="-310" y="613.4649122807017" width="155" height="69.12280701754385" as="geometry" />
        </mxCell>
        <mxCell id="44qtV6yCwoEBOuUHUgaS-19" value="" style="edgeStyle=orthogonalEdgeStyle;rounded=0;orthogonalLoop=1;jettySize=auto;html=1;" edge="1" parent="QHdmLmcBKPEno6SRClTl-49" source="44qtV6yCwoEBOuUHUgaS-16" target="44qtV6yCwoEBOuUHUgaS-18">
          <mxGeometry relative="1" as="geometry" />
        </mxCell>
        <mxCell id="44qtV6yCwoEBOuUHUgaS-21" value="" style="edgeStyle=orthogonalEdgeStyle;rounded=0;orthogonalLoop=1;jettySize=auto;html=1;" edge="1" parent="QHdmLmcBKPEno6SRClTl-49" source="44qtV6yCwoEBOuUHUgaS-16" target="44qtV6yCwoEBOuUHUgaS-20">
          <mxGeometry relative="1" as="geometry" />
        </mxCell>
        <mxCell id="44qtV6yCwoEBOuUHUgaS-11" value="" style="edgeStyle=orthogonalEdgeStyle;rounded=0;orthogonalLoop=1;jettySize=auto;html=1;entryX=0.5;entryY=0;entryDx=0;entryDy=0;" edge="1" parent="44qtV6yCwoEBOuUHUgaS-79" source="44qtV6yCwoEBOuUHUgaS-7" target="44qtV6yCwoEBOuUHUgaS-1">
          <mxGeometry relative="1" as="geometry">
            <mxPoint x="1423.5900000000001" y="596.1842105263157" as="targetPoint" />
          </mxGeometry>
        </mxCell>
        <mxCell id="44qtV6yCwoEBOuUHUgaS-17" value="" style="edgeStyle=orthogonalEdgeStyle;rounded=0;orthogonalLoop=1;jettySize=auto;html=1;exitX=0;exitY=0.5;exitDx=0;exitDy=0;" edge="1" parent="44qtV6yCwoEBOuUHUgaS-79" source="44qtV6yCwoEBOuUHUgaS-7" target="44qtV6yCwoEBOuUHUgaS-16">
          <mxGeometry relative="1" as="geometry" />
        </mxCell>
        <mxCell id="44qtV6yCwoEBOuUHUgaS-7" value="&lt;div&gt;if (!nomePaiDb &amp;amp;&amp;amp; !nomeCriancaDb)&lt;/div&gt;" style="rhombus;whiteSpace=wrap;html=1;fillColor=#fa6800;strokeColor=#C73500;fontColor=#000000;" vertex="1" parent="44qtV6yCwoEBOuUHUgaS-79">
          <mxGeometry x="1200" y="521.0131578947368" width="155" height="69.12280701754385" as="geometry" />
        </mxCell>
        <mxCell id="44qtV6yCwoEBOuUHUgaS-8" value="" style="edgeStyle=orthogonalEdgeStyle;rounded=0;orthogonalLoop=1;jettySize=auto;html=1;entryX=0.509;entryY=0.049;entryDx=0;entryDy=0;entryPerimeter=0;exitX=0.017;exitY=0.518;exitDx=0;exitDy=0;exitPerimeter=0;" edge="1" parent="44qtV6yCwoEBOuUHUgaS-79" source="QHdmLmcBKPEno6SRClTl-58" target="44qtV6yCwoEBOuUHUgaS-7">
          <mxGeometry relative="1" as="geometry">
            <Array as="points">
              <mxPoint x="1279" y="471.7631578947368" />
            </Array>
          </mxGeometry>
        </mxCell>
        <mxCell id="44qtV6yCwoEBOuUHUgaS-60" style="edgeStyle=orthogonalEdgeStyle;rounded=0;orthogonalLoop=1;jettySize=auto;html=1;entryX=-0.021;entryY=0.553;entryDx=0;entryDy=0;entryPerimeter=0;endArrow=none;startFill=0;" edge="1" parent="44qtV6yCwoEBOuUHUgaS-79" source="44qtV6yCwoEBOuUHUgaS-57" target="44qtV6yCwoEBOuUHUgaS-70">
          <mxGeometry relative="1" as="geometry">
            <mxPoint x="1350" y="993.6403508771929" as="targetPoint" />
            <Array as="points">
              <mxPoint x="930" y="984.9999999999999" />
            </Array>
          </mxGeometry>
        </mxCell>
        <mxCell id="44qtV6yCwoEBOuUHUgaS-57" value="Criança adicionada com sucesso!" style="shape=display;whiteSpace=wrap;html=1;fillColor=#76608a;fontColor=light-dark(#FFFFFF,#FFFFFF);strokeColor=#432D57;size=0.2400753687219792;" vertex="1" parent="44qtV6yCwoEBOuUHUgaS-79">
          <mxGeometry x="853.04" y="855.3947368421052" width="153.91" height="60.48245614035087" as="geometry" />
        </mxCell>
        <mxCell id="44qtV6yCwoEBOuUHUgaS-58" value="" style="edgeStyle=orthogonalEdgeStyle;rounded=0;orthogonalLoop=1;jettySize=auto;html=1;" edge="1" parent="44qtV6yCwoEBOuUHUgaS-79" source="44qtV6yCwoEBOuUHUgaS-20" target="44qtV6yCwoEBOuUHUgaS-57">
          <mxGeometry relative="1" as="geometry" />
        </mxCell>
        <mxCell id="44qtV6yCwoEBOuUHUgaS-81" value="" style="rounded=1;whiteSpace=wrap;html=1;" vertex="1" parent="1">
          <mxGeometry x="3740" y="-1820" width="730" height="880" as="geometry" />
        </mxCell>
        <mxCell id="44qtV6yCwoEBOuUHUgaS-131" value="falso" style="text;html=1;align=center;verticalAlign=middle;whiteSpace=wrap;rounded=0;fontSize=10;" vertex="1" parent="1">
          <mxGeometry x="2356" y="-1026" width="25" height="25" as="geometry" />
        </mxCell>
        <mxCell id="44qtV6yCwoEBOuUHUgaS-134" value="Pulseira" style="text;html=1;align=center;verticalAlign=middle;whiteSpace=wrap;rounded=0;fontSize=40;fontStyle=1" vertex="1" parent="1">
          <mxGeometry x="4020" y="-1754" width="170" height="30" as="geometry" />
        </mxCell>
        <mxCell id="44qtV6yCwoEBOuUHUgaS-152" value="" style="group" connectable="0" vertex="1" parent="1">
          <mxGeometry x="3990" y="-1660" width="180" height="679" as="geometry" />
        </mxCell>
        <mxCell id="44qtV6yCwoEBOuUHUgaS-139" value="" style="edgeStyle=orthogonalEdgeStyle;rounded=0;orthogonalLoop=1;jettySize=auto;html=1;" edge="1" parent="44qtV6yCwoEBOuUHUgaS-152" source="44qtV6yCwoEBOuUHUgaS-135" target="44qtV6yCwoEBOuUHUgaS-138">
          <mxGeometry relative="1" as="geometry" />
        </mxCell>
        <mxCell id="44qtV6yCwoEBOuUHUgaS-135" value="Inicio" style="ellipse;whiteSpace=wrap;html=1;aspect=fixed;fillColor=#0050ef;fontColor=#ffffff;strokeColor=#001DBC;" vertex="1" parent="44qtV6yCwoEBOuUHUgaS-152">
          <mxGeometry x="80" width="80" height="80" as="geometry" />
        </mxCell>
        <mxCell id="44qtV6yCwoEBOuUHUgaS-141" value="" style="edgeStyle=orthogonalEdgeStyle;rounded=0;orthogonalLoop=1;jettySize=auto;html=1;" edge="1" parent="44qtV6yCwoEBOuUHUgaS-152" source="44qtV6yCwoEBOuUHUgaS-138" target="44qtV6yCwoEBOuUHUgaS-140">
          <mxGeometry relative="1" as="geometry" />
        </mxCell>
        <mxCell id="44qtV6yCwoEBOuUHUgaS-143" value="" style="edgeStyle=orthogonalEdgeStyle;rounded=0;orthogonalLoop=1;jettySize=auto;html=1;" edge="1" parent="44qtV6yCwoEBOuUHUgaS-152" source="44qtV6yCwoEBOuUHUgaS-138" target="44qtV6yCwoEBOuUHUgaS-142">
          <mxGeometry relative="1" as="geometry">
            <Array as="points">
              <mxPoint y="200" />
              <mxPoint y="650" />
            </Array>
          </mxGeometry>
        </mxCell>
        <mxCell id="44qtV6yCwoEBOuUHUgaS-138" value="status -&amp;gt; true" style="whiteSpace=wrap;html=1;fillColor=#6a00ff;strokeColor=#3700CC;fontColor=#ffffff;" vertex="1" parent="44qtV6yCwoEBOuUHUgaS-152">
          <mxGeometry x="60" y="170" width="120" height="60" as="geometry" />
        </mxCell>
        <mxCell id="44qtV6yCwoEBOuUHUgaS-146" value="" style="edgeStyle=orthogonalEdgeStyle;rounded=0;orthogonalLoop=1;jettySize=auto;html=1;" edge="1" parent="44qtV6yCwoEBOuUHUgaS-152" source="44qtV6yCwoEBOuUHUgaS-140" target="44qtV6yCwoEBOuUHUgaS-145">
          <mxGeometry relative="1" as="geometry" />
        </mxCell>
        <mxCell id="44qtV6yCwoEBOuUHUgaS-140" value="if(tstaus)" style="rhombus;whiteSpace=wrap;html=1;fillColor=#fa6800;strokeColor=#C73500;fontColor=#000000;" vertex="1" parent="44qtV6yCwoEBOuUHUgaS-152">
          <mxGeometry x="80" y="300" width="80" height="80" as="geometry" />
        </mxCell>
        <mxCell id="44qtV6yCwoEBOuUHUgaS-142" value="Fim" style="ellipse;whiteSpace=wrap;html=1;fillColor=#0050ef;strokeColor=#001DBC;fontColor=#ffffff;" vertex="1" parent="44qtV6yCwoEBOuUHUgaS-152">
          <mxGeometry x="80" y="599" width="80" height="80" as="geometry" />
        </mxCell>
        <mxCell id="44qtV6yCwoEBOuUHUgaS-148" value="" style="edgeStyle=orthogonalEdgeStyle;rounded=0;orthogonalLoop=1;jettySize=auto;html=1;" edge="1" parent="44qtV6yCwoEBOuUHUgaS-152" source="44qtV6yCwoEBOuUHUgaS-145" target="44qtV6yCwoEBOuUHUgaS-147">
          <mxGeometry relative="1" as="geometry" />
        </mxCell>
        <mxCell id="44qtV6yCwoEBOuUHUgaS-145" value="Coleta Long &amp;amp; Lat.&lt;div&gt;Armazena em:&lt;/div&gt;&lt;div&gt;Long -&amp;gt; Long()&lt;/div&gt;&lt;div&gt;Lat -&amp;gt; Lat()&lt;/div&gt;" style="whiteSpace=wrap;html=1;fillColor=#6a00ff;strokeColor=#3700CC;fontColor=#ffffff;" vertex="1" parent="44qtV6yCwoEBOuUHUgaS-152">
          <mxGeometry x="60" y="400" width="120" height="60" as="geometry" />
        </mxCell>
        <mxCell id="44qtV6yCwoEBOuUHUgaS-150" style="edgeStyle=orthogonalEdgeStyle;rounded=0;orthogonalLoop=1;jettySize=auto;html=1;entryX=1;entryY=0.5;entryDx=0;entryDy=0;exitX=1;exitY=0.5;exitDx=0;exitDy=0;" edge="1" parent="44qtV6yCwoEBOuUHUgaS-152" source="44qtV6yCwoEBOuUHUgaS-147" target="44qtV6yCwoEBOuUHUgaS-140">
          <mxGeometry relative="1" as="geometry" />
        </mxCell>
        <mxCell id="44qtV6yCwoEBOuUHUgaS-147" value="Envia dados para API" style="whiteSpace=wrap;html=1;fillColor=#6a00ff;strokeColor=#3700CC;fontColor=#ffffff;" vertex="1" parent="44qtV6yCwoEBOuUHUgaS-152">
          <mxGeometry x="60" y="490" width="120" height="60" as="geometry" />
        </mxCell>
      </root>
    </mxGraphModel>
  </diagram>
</mxfile>
